<svg xmlns="http://www.w3.org/2000/svg" width="500" height="500" viewBox="0 0 500 500">
<g>
<path d="M 261.00 407.00 C258.11,411.40 255.68,415.00 255.60,415.00 C255.51,415.00 252.53,412.08 248.97,408.52 C245.41,404.95 242.12,402.03 241.66,402.02 C241.20,402.01 238.29,404.26 235.20,407.01 C232.10,409.77 229.11,411.87 228.55,411.68 C227.99,411.50 225.72,408.34 223.52,404.67 C221.32,401.00 219.04,398.00 218.45,398.00 C217.86,398.00 214.77,399.58 211.57,401.50 C208.37,403.42 205.64,405.00 205.49,405.00 C205.34,405.00 203.77,401.40 202.00,397.00 C200.23,392.60 198.37,389.00 197.87,389.00 C197.37,389.00 194.19,390.12 190.81,391.50 C187.42,392.88 184.30,394.00 183.87,394.00 C183.11,394.00 182.57,392.31 179.94,381.80 C178.87,377.49 178.55,377.13 176.13,377.54 C174.69,377.78 170.84,378.43 167.58,378.99 C164.33,379.54 161.44,379.78 161.18,379.51 C160.91,379.24 160.75,375.19 160.83,370.51 L 160.96 362.00 L 152.15 362.00 C147.30,362.00 143.09,361.76 142.80,361.47 C142.51,361.18 143.09,357.46 144.10,353.22 C145.11,348.97 145.95,345.00 145.97,344.39 C145.98,343.78 142.33,342.55 137.84,341.65 C133.35,340.75 129.42,339.75 129.10,339.44 C128.79,339.12 129.76,335.39 131.27,331.14 C134.52,321.95 134.59,321.00 132.06,321.00 C130.99,321.00 129.89,320.64 129.62,320.20 C129.35,319.76 126.83,318.77 124.03,318.01 C121.22,317.24 118.51,316.11 117.99,315.49 C117.37,314.75 118.57,311.77 121.53,306.72 C123.99,302.52 126.00,298.86 126.00,298.59 C126.00,298.31 122.82,296.23 118.94,293.96 C115.05,291.70 111.63,289.21 111.34,288.43 C110.86,287.20 118.23,277.07 120.25,276.17 C122.50,275.17 120.31,271.64 114.50,266.92 C110.93,264.02 107.99,261.39 107.97,261.08 C107.96,260.76 111.14,257.58 115.03,254.00 L 122.12 247.50 L 116.57 241.00 C113.52,237.43 111.02,234.01 111.01,233.42 C111.01,232.82 114.04,230.67 117.75,228.63 C121.46,226.60 125.13,224.54 125.91,224.06 C127.06,223.35 126.53,221.67 123.11,215.09 C120.79,210.63 119.11,206.62 119.39,206.18 C119.66,205.74 123.17,204.31 127.19,203.01 C131.21,201.71 135.03,200.17 135.67,199.58 C136.56,198.76 136.25,196.61 134.35,190.66 C132.98,186.34 132.08,182.24 132.34,181.55 C132.63,180.80 136.18,179.85 141.02,179.23 C145.53,178.66 149.63,177.77 150.14,177.26 C150.70,176.70 150.72,172.85 150.18,167.42 C149.69,162.51 149.42,158.35 149.57,158.16 C149.72,157.97 150.80,158.12 151.95,158.49 C153.97,159.12 154.05,159.70 153.78,171.83 L 153.50 184.50 L 147.25 185.34 C140.03,186.31 139.94,186.51 142.98,195.59 C144.06,198.84 144.96,202.01 144.98,202.64 C144.99,203.27 141.40,205.06 137.00,206.62 C132.60,208.19 129.00,209.97 129.00,210.59 C129.00,211.21 130.61,214.80 132.57,218.57 C136.50,226.10 136.45,226.33 130.00,229.40 C126.01,231.31 121.01,234.45 121.01,235.06 C121.00,235.37 121.80,236.50 122.78,237.56 C123.76,238.63 126.12,241.68 128.02,244.35 L 131.48 249.19 L 127.99 252.00 C126.07,253.54 122.99,256.12 121.14,257.74 L 117.77 260.68 L 122.14 264.74 C124.54,266.98 127.60,269.69 128.94,270.77 L 131.38 272.73 L 125.67 279.61 C121.01,285.22 120.22,286.68 121.39,287.50 C122.18,288.05 125.59,290.20 128.97,292.29 L 135.10 296.07 L 130.92 303.65 C130.71,304.02 130.51,304.39 130.32,304.73 C128.38,308.23 127.39,310.01 127.85,311.25 C128.37,312.67 130.76,313.39 135.75,315.16 C139.64,316.53 142.00,317.93 142.00,318.86 C142.00,319.69 141.01,323.42 139.81,327.16 C138.61,330.90 137.85,334.18 138.12,334.45 C138.39,334.73 141.65,335.59 145.36,336.36 C149.08,337.14 152.38,338.04 152.70,338.36 C153.02,338.69 152.73,342.37 152.06,346.56 C151.38,350.74 151.05,354.38 151.32,354.65 C151.59,354.92 155.22,355.40 159.40,355.71 C163.86,356.05 167.03,356.75 167.08,357.39 C167.12,358.00 167.25,361.29 167.36,364.70 C167.48,368.11 167.78,371.09 168.03,371.32 C168.29,371.55 171.77,371.28 175.77,370.72 C179.77,370.17 183.28,369.95 183.57,370.24 C183.86,370.52 184.88,373.62 185.84,377.13 C187.57,383.46 187.60,383.50 190.97,383.22 C192.84,383.07 194.85,382.54 195.44,382.05 C196.04,381.55 197.86,381.00 199.48,380.83 C202.31,380.51 202.58,380.84 205.40,387.89 C208.29,395.13 208.39,395.24 210.05,393.18 C210.99,392.03 212.03,391.37 212.38,391.71 C212.72,392.05 213.00,391.60 213.00,390.70 C213.00,389.67 213.55,389.27 214.48,389.63 C215.36,389.97 218.06,388.35 221.21,385.60 C224.10,383.07 226.73,381.00 227.06,381.00 C227.38,381.00 230.17,383.50 233.26,386.56 L 238.87 392.13 L 244.07 385.51 C247.26,381.44 249.79,379.09 250.63,379.41 C251.38,379.70 254.50,381.54 257.55,383.49 C260.61,385.45 263.45,386.84 263.86,386.59 C264.27,386.33 266.16,382.94 268.05,379.04 C271.34,372.28 271.63,371.98 274.35,372.58 C275.92,372.92 279.23,374.10 281.71,375.20 C284.63,376.49 286.55,376.85 287.19,376.21 C287.72,375.68 288.94,372.15 289.90,368.37 C291.64,361.52 291.66,361.50 295.07,361.58 C296.96,361.62 300.80,362.01 303.61,362.44 L 308.72 363.22 L 310.12 347.26 L 314.70 346.63 C317.22,346.28 321.07,346.00 323.26,346.00 L 327.25 346.00 L 326.81 337.51 C326.77,336.82 326.73,336.18 326.70,335.60 C326.50,332.24 326.39,330.49 327.20,329.43 C328.22,328.10 330.69,327.89 336.24,326.94 C342.36,325.90 342.95,325.60 342.54,323.65 C341.17,317.07 340.00,310.79 340.00,310.01 C340.00,309.53 343.38,307.87 347.50,306.34 C351.62,304.80 355.00,303.19 355.00,302.75 C355.00,302.32 353.88,299.19 352.50,295.81 C351.12,292.42 350.00,289.17 350.00,288.58 C350.00,287.98 352.14,286.29 354.75,284.81 C359.72,282.01 361.98,280.88 362.36,279.30 C362.67,278.05 361.80,276.52 360.18,273.64 C359.98,273.29 359.77,272.92 359.55,272.52 L 355.77 265.76 L 360.76 260.76 L 365.75 255.77 L 361.88 249.93 C359.74,246.72 358.00,243.64 358.00,243.07 C358.00,242.51 360.29,243.40 363.09,245.05 L 368.17 248.05 L 370.05 245.66 C371.09,244.34 373.53,241.36 375.47,239.04 C379.99,233.62 379.95,231.81 375.25,229.71 C373.19,228.79 370.15,226.92 368.50,225.57 L 365.50 223.11 L 369.27 215.80 C373.28,208.05 373.60,207.00 371.98,207.00 C369.39,207.00 357.00,201.42 357.00,200.26 C357.00,199.54 357.90,196.39 359.00,193.26 C361.47,186.24 361.53,184.01 359.25,183.96 C356.73,183.91 349.72,182.96 348.25,182.48 C347.35,182.18 347.00,178.87 347.00,170.53 L 347.00 159.00 L 353.90 159.00 L 353.31 167.39 C353.28,167.89 353.24,168.36 353.21,168.80 C352.93,172.52 352.79,174.43 353.67,175.52 C354.71,176.80 357.19,176.93 362.57,177.50 C371.57,178.47 371.60,178.51 368.49,187.26 C367.02,191.40 365.97,195.56 366.16,196.50 C366.39,197.65 369.04,199.00 374.30,200.66 C378.60,202.01 382.32,203.68 382.59,204.36 C382.85,205.05 381.25,208.91 379.03,212.94 C376.81,216.98 375.00,220.58 375.00,220.94 C375.00,221.30 378.36,223.52 382.47,225.85 C386.58,228.19 390.14,230.42 390.37,230.80 C390.61,231.19 388.09,234.85 384.78,238.95 L 378.76 246.40 L 382.18 249.45 C384.07,251.13 387.31,253.85 389.38,255.50 C391.85,257.46 392.95,259.02 392.54,260.00 C392.21,260.83 389.02,263.70 385.46,266.38 C381.91,269.06 379.00,271.61 379.00,272.05 C379.00,272.48 381.48,275.74 384.50,279.28 C387.52,282.83 390.00,286.23 390.00,286.84 C390.00,287.45 386.39,290.03 381.97,292.58 L 373.93 297.21 L 378.45 305.56 C381.55,311.29 382.60,314.13 381.81,314.62 C381.18,315.01 377.25,316.55 373.08,318.04 C364.35,321.16 364.33,321.22 368.05,331.91 C370.20,338.09 370.22,338.37 368.45,339.66 C367.44,340.40 365.61,341.00 364.39,341.00 C363.16,341.00 359.82,341.54 356.97,342.20 L 351.79 343.39 L 352.38 348.95 C352.70,352.00 353.25,356.19 353.59,358.25 L 354.22 362.00 L 344.72 362.00 C344.34,362.00 343.98,362.00 343.63,362.00 C338.84,361.99 336.43,361.99 335.22,363.19 C333.99,364.41 333.99,366.87 334.00,371.80 C334.00,372.16 334.00,372.53 334.00,372.92 C334.00,377.18 333.76,380.90 333.47,381.20 C333.18,381.49 329.03,380.92 324.24,379.95 C319.45,378.97 315.25,378.35 314.89,378.57 C314.53,378.79 313.47,382.46 312.52,386.73 C311.57,391.01 310.63,395.06 310.43,395.75 C310.16,396.67 308.24,396.30 303.28,394.37 C302.99,394.26 302.71,394.14 302.43,394.04 C296.61,391.77 293.96,390.74 292.21,391.58 C290.65,392.32 289.80,394.54 288.08,398.66 C286.29,402.97 284.44,406.90 283.97,407.39 C283.48,407.90 279.95,406.30 275.67,403.64 C271.58,401.09 267.78,399.00 267.24,399.00 C266.70,399.00 263.89,402.60 261.00,407.00 ZM 216.80 300.25 C216.51,306.24 216.39,306.51 213.75,306.82 L 211.00 307.13 L 211.00 288.13 L 213.75 287.82 C215.91,287.57 216.57,286.91 216.82,284.75 C217.08,282.45 217.61,282.00 220.07,282.00 L 223.00 282.00 L 223.00 269.00 L 226.00 269.00 C228.67,269.00 229.00,268.67 229.00,266.00 C229.00,263.33 229.33,263.00 232.00,263.00 C234.65,263.00 235.00,262.66 235.00,260.06 C235.00,256.63 234.16,255.88 231.17,256.66 C229.58,257.08 229.00,258.00 229.00,260.12 C229.00,262.65 228.64,263.00 226.00,263.00 L 223.00 263.00 L 223.00 250.00 L 226.00 250.00 C228.67,250.00 229.00,249.67 229.00,247.00 C229.00,244.33 228.67,244.00 226.00,244.00 C223.33,244.00 223.00,244.33 223.00,247.00 C223.00,249.67 222.67,250.00 220.00,250.00 C217.33,250.00 217.00,250.33 217.00,253.00 C217.00,255.65 216.66,256.00 214.06,256.00 C211.48,256.00 211.09,256.39 210.81,259.25 C210.55,261.98 210.02,262.57 207.50,263.00 C205.15,263.40 204.43,264.09 204.19,266.19 C203.95,268.27 203.27,268.95 201.19,269.19 C199.07,269.43 198.50,270.03 198.50,272.00 C198.50,274.09 199.03,274.55 201.75,274.81 C204.78,275.11 205.00,274.92 205.00,272.06 L 205.00 269.00 L 217.00 269.00 L 217.00 272.00 C217.00,274.67 216.67,275.00 214.00,275.00 L 211.00 275.00 L 211.00 287.87 L 207.75 288.19 C205.04,288.45 204.45,288.96 204.18,291.25 C203.94,293.41 203.35,294.00 201.43,294.00 C199.40,294.00 199.00,293.51 199.00,291.00 C199.00,288.33 199.33,288.00 202.00,288.00 C204.76,288.00 205.00,287.72 205.00,284.50 L 205.00 281.00 L 198.50 281.00 C192.23,281.00 192.00,280.91 192.00,278.50 C192.00,276.69 191.46,276.00 190.05,276.00 C187.72,276.00 186.07,273.44 186.75,270.86 C187.15,269.31 188.22,269.00 193.12,269.00 C198.99,269.00 199.00,268.99 199.00,266.00 L 199.00 263.00 L 192.57 263.00 C186.29,263.00 186.13,263.07 185.82,265.75 C185.57,267.90 184.91,268.57 182.80,268.81 C180.26,269.11 180.08,269.46 179.80,274.81 C179.52,280.19 179.35,280.52 176.75,280.82 C174.38,281.09 174.00,280.78 174.00,278.57 C174.00,276.38 173.55,276.00 171.00,276.00 L 168.00 276.00 L 168.00 294.00 L 162.00 294.00 L 162.00 269.00 L 165.00 269.00 C167.67,269.00 168.00,268.67 168.00,266.00 C168.00,263.32 167.67,263.00 164.94,263.00 C162.08,263.00 161.89,262.78 162.19,259.75 C162.46,256.91 162.88,256.49 165.50,256.38 C171.29,256.16 173.14,256.15 173.73,255.28 C174.01,254.87 174.01,254.27 174.00,253.37 C174.00,253.25 174.00,253.13 174.00,253.00 C174.00,250.33 174.33,250.00 177.00,250.00 C179.67,250.00 180.00,249.67 180.00,247.00 L 180.00 244.00 L 199.00 244.00 L 199.00 247.00 C199.00,249.67 199.33,250.00 202.00,250.00 C204.65,250.00 205.00,249.66 205.00,247.07 C205.00,244.61 205.45,244.08 207.75,243.82 C210.04,243.55 210.55,242.96 210.81,240.25 C211.11,237.22 210.92,237.00 208.06,237.00 C205.33,237.00 205.00,236.68 205.00,234.00 C205.00,231.33 204.67,231.00 202.00,231.00 C199.33,231.00 199.00,230.67 199.00,228.00 C199.00,225.24 198.72,225.00 195.50,225.00 C192.28,225.00 192.00,225.24 192.00,228.00 C192.00,230.51 192.40,231.00 194.44,231.00 C197.16,231.00 197.44,231.30 198.40,235.32 C199.04,238.01 198.93,238.12 195.79,237.82 C192.89,237.54 192.46,237.12 192.19,234.25 C191.93,231.56 191.45,231.00 189.44,231.00 C187.40,231.00 187.00,230.51 187.00,228.00 C187.00,225.47 187.39,225.00 189.50,225.00 C191.89,225.00 192.00,224.73 192.00,219.04 L 192.00 213.08 L 201.25 212.79 L 210.50 212.50 L 210.80 206.25 C211.09,200.06 211.12,200.00 214.05,200.00 C216.66,200.00 217.00,199.66 217.00,197.00 C217.00,194.33 217.33,194.00 220.00,194.00 C222.76,194.00 223.00,193.72 223.00,190.50 C223.00,187.28 223.24,187.00 226.00,187.00 C228.67,187.00 229.00,186.67 229.00,184.00 L 229.00 181.00 L 217.00 181.00 L 217.00 184.00 C217.00,186.67 216.67,187.00 214.00,187.00 C211.33,187.00 211.00,186.67 211.00,184.00 C211.00,181.33 211.33,181.00 214.00,181.00 C216.65,181.00 217.00,180.66 217.00,178.07 C217.00,175.61 216.55,175.08 214.25,174.82 C211.61,174.51 211.49,174.24 211.20,168.25 L 210.90 162.00 L 222.90 162.00 L 223.20 168.25 C223.48,174.17 223.63,174.50 226.00,174.50 C228.09,174.50 228.55,173.97 228.81,171.25 L 229.13 168.00 L 235.06 168.00 C240.99,168.00 241.00,168.00 241.00,165.00 L 241.00 162.00 L 253.00 162.00 L 253.00 165.00 C253.00,167.66 252.66,168.00 250.03,168.00 C247.88,168.00 247.21,168.39 247.61,169.42 C247.91,170.20 247.65,171.78 247.04,172.92 C246.12,174.64 244.97,175.00 240.46,175.00 L 235.00 175.00 L 235.00 194.00 L 237.95 194.00 C240.88,194.00 240.91,193.94 241.20,187.75 C241.49,181.80 241.63,181.48 244.18,181.19 C246.46,180.93 246.90,181.30 247.18,183.69 C247.45,186.05 248.02,186.55 250.75,186.81 L 254.00 187.13 L 254.00 181.06 C254.00,175.26 254.11,175.00 256.50,175.00 C258.30,175.00 259.00,174.46 259.00,173.08 C259.00,169.44 260.17,168.00 263.11,168.00 C265.65,168.00 266.00,167.64 266.00,165.00 C266.00,162.03 266.06,162.00 271.50,162.00 C276.94,162.00 277.00,162.03 277.00,165.00 C277.00,167.53 276.61,168.00 274.50,168.00 C272.56,168.00 272.00,168.51 272.00,170.30 C272.00,173.03 270.27,175.00 267.87,175.00 C266.72,175.00 266.03,175.93 265.82,177.75 C265.55,180.04 264.96,180.55 262.25,180.81 L 259.00 181.13 L 259.00 194.00 L 253.02 194.00 L 253.37 201.92 C253.77,210.89 253.26,212.32 249.89,211.84 C247.34,211.48 247.32,211.41 247.12,204.50 C247.01,200.19 246.87,200.00 244.00,200.00 C241.32,200.00 241.00,200.33 241.00,203.07 C241.00,205.82 240.72,206.10 238.25,205.82 C235.65,205.52 235.48,205.19 235.20,199.75 L 234.90 194.00 L 228.95 194.00 C223.01,194.00 223.00,194.00 223.00,197.00 C223.00,199.67 223.33,200.00 226.00,200.00 L 229.00 200.00 L 229.00 206.00 C229.00,211.97 228.99,212.00 226.06,212.00 C223.48,212.00 223.09,212.39 222.81,215.25 C222.55,217.96 222.04,218.55 219.75,218.82 C217.45,219.08 217.00,219.61 217.00,222.07 C217.00,224.66 217.35,225.00 220.00,225.00 C222.67,225.00 223.00,225.33 223.00,228.00 C223.00,230.68 222.67,231.00 219.94,231.00 C217.08,231.00 216.89,231.22 217.19,234.25 C217.50,237.46 217.57,237.50 223.25,237.80 C228.88,238.09 229.00,238.16 229.00,241.05 C229.00,243.66 229.34,244.00 232.00,244.00 L 235.00 244.00 L 235.00 225.00 L 237.95 225.00 C240.84,225.00 240.91,224.88 241.20,219.25 C241.48,213.85 241.66,213.48 244.18,213.19 C246.46,212.93 246.90,213.30 247.18,215.69 C247.45,218.07 247.95,218.50 250.50,218.50 C253.03,218.50 253.55,218.07 253.82,215.75 C254.06,213.61 254.66,213.00 256.50,213.00 C258.34,213.00 258.94,213.61 259.18,215.75 C259.45,218.05 260.04,218.55 262.82,218.82 C266.03,219.13 266.13,219.03 265.82,215.82 C265.55,213.02 265.04,212.43 262.50,212.00 C259.62,211.51 259.49,211.26 259.20,205.74 L 258.90 200.00 L 266.00 200.00 L 266.00 181.00 L 269.00 181.00 C271.66,181.00 272.00,180.66 272.00,178.05 C272.00,175.16 272.12,175.09 277.75,174.80 L 283.50 174.50 L 283.80 168.25 C284.09,162.05 284.12,162.00 287.08,162.00 L 290.06 162.00 L 289.78 174.25 L 289.50 186.50 L 283.51 187.00 C278.77,187.40 277.45,187.88 277.18,189.30 C276.56,192.53 278.90,194.00 284.67,194.00 L 290.10 194.00 L 289.80 199.75 C289.52,205.19 289.35,205.52 286.75,205.82 C284.28,206.10 284.00,205.82 284.00,203.07 C284.00,200.35 283.67,200.00 281.12,200.00 C277.92,200.00 277.04,201.75 277.01,208.18 C277.00,211.45 276.69,211.90 274.25,212.18 C272.57,212.38 271.61,213.03 271.78,213.85 C272.37,216.63 270.86,219.00 268.50,219.00 C266.66,219.00 266.06,219.61 265.82,221.75 C265.55,224.04 264.96,224.55 262.25,224.81 L 259.00 225.13 L 259.00 231.50 C259.00,237.84 258.98,237.88 256.25,237.69 C253.82,237.52 253.46,237.89 253.18,240.81 C252.90,243.75 252.56,244.08 250.18,243.81 C247.61,243.51 247.50,243.26 247.50,237.50 L 247.50 231.50 L 250.75 231.19 C253.61,230.91 254.00,230.52 254.00,227.94 L 254.00 225.00 L 241.00 225.00 L 241.00 250.00 L 238.00 250.00 C235.33,250.00 235.00,250.33 235.00,253.00 C235.00,254.67 235.55,256.05 236.25,256.12 C236.94,256.18 238.18,256.29 239.00,256.37 C239.92,256.45 240.62,257.75 240.81,259.75 C241.10,262.77 240.91,263.00 238.11,263.00 C235.11,263.00 235.09,263.03 234.80,269.25 C234.51,275.24 234.39,275.51 231.75,275.82 C229.61,276.06 229.00,276.66 229.00,278.50 C229.00,280.34 228.39,280.94 226.25,281.18 C223.61,281.49 223.49,281.76 223.20,287.75 C222.91,293.91 222.86,294.00 220.00,294.00 C217.14,294.00 217.09,294.09 216.80,300.25 ZM 176.61 151.41 C176.09,153.50 175.37,154.00 172.84,154.00 L 169.73 154.00 L 170.25 147.44 C170.54,143.84 171.01,140.65 171.30,140.37 C171.74,139.93 184.58,143.13 188.63,144.69 C189.44,145.00 190.79,142.07 192.58,136.08 C195.79,125.39 196.15,125.24 205.57,130.50 C209.01,132.43 212.31,134.00 212.90,134.00 C213.49,134.00 215.79,130.40 218.00,126.00 C220.21,121.60 222.58,118.00 223.27,118.00 C223.95,118.00 226.99,120.03 230.01,122.51 C235.88,127.33 238.87,128.78 239.87,127.28 C242.36,123.58 250.44,114.00 251.08,114.00 C251.52,114.00 254.65,117.40 258.05,121.56 L 264.23 129.13 L 266.86 126.81 C268.30,125.54 269.71,124.27 269.99,123.99 C272.06,121.93 278.12,118.00 279.21,118.00 C279.96,118.00 282.23,121.38 284.27,125.50 C286.31,129.62 288.45,133.00 289.02,133.00 C289.59,133.00 292.73,131.88 296.00,130.50 C299.27,129.12 302.33,128.00 302.82,128.00 C303.30,128.00 304.51,129.80 305.50,132.00 C306.49,134.20 307.70,136.00 308.18,136.00 C308.66,136.00 311.79,130.26 315.14,123.25 C318.49,116.24 321.58,109.80 322.00,108.95 C322.43,108.09 323.58,104.08 324.56,100.03 C327.59,87.56 333.65,83.16 343.96,85.91 C350.05,87.53 357.48,92.43 359.97,96.45 C362.21,100.08 362.62,105.95 360.86,109.32 C360.23,110.52 357.77,113.61 355.38,116.18 C349.47,122.57 342.63,133.36 337.37,144.61 C333.30,153.33 332.78,154.00 330.05,154.00 C328.44,154.00 326.84,153.54 326.49,152.99 C325.75,151.79 329.26,141.98 332.20,137.00 C333.34,135.07 335.41,131.48 336.80,129.00 C341.45,120.70 343.72,117.46 348.88,111.83 C355.23,104.87 355.70,101.37 350.75,97.67 C343.24,92.05 337.43,90.57 334.90,93.62 C334.15,94.52 332.09,99.70 330.31,105.13 C326.48,116.85 316.54,137.54 311.47,144.32 C307.34,149.86 306.47,149.66 302.92,142.34 C301.72,139.86 300.13,137.60 299.39,137.32 C298.64,137.03 295.59,137.81 292.61,139.04 C289.63,140.28 286.54,141.04 285.74,140.73 C284.94,140.42 282.82,137.55 281.02,134.34 C279.22,131.13 277.62,128.35 277.46,128.17 C277.06,127.71 273.44,129.71 271.83,131.28 C271.10,131.99 268.74,133.90 266.60,135.52 L 262.70 138.47 L 259.60 134.55 C257.89,132.40 255.26,129.25 253.74,127.57 L 250.99 124.50 L 248.91 127.00 C247.77,128.38 245.25,131.41 243.31,133.75 C241.38,136.09 239.45,138.00 239.02,138.00 C238.60,138.00 235.44,135.75 232.00,133.00 C228.56,130.25 225.43,128.00 225.04,128.00 C224.65,128.00 223.71,129.24 222.95,130.75 C222.19,132.26 220.30,135.80 218.76,138.61 L 215.96 143.73 L 208.73 139.89 C204.75,137.78 201.03,136.04 200.46,136.03 C199.59,136.00 197.24,142.81 195.50,150.39 C194.81,153.36 194.35,153.43 188.25,151.59 C178.05,148.50 177.35,148.49 176.61,151.41 ZM 204.31 202.75 L 203.78 206.00 L 162.00 206.00 L 162.00 162.00 L 183.00 162.00 C194.55,162.00 204.04,162.34 204.09,162.75 C204.53,166.53 204.71,200.25 204.31,202.75 ZM 338.39 200.25 L 337.80 206.00 L 317.52 206.00 C297.33,206.00 297.23,205.99 296.63,203.75 C295.85,200.82 295.85,167.18 296.63,164.25 C297.23,162.01 297.31,162.00 317.97,162.00 L 338.71 162.00 L 338.85 178.25 C338.92,187.19 338.72,197.09 338.39,200.25 ZM 204.29 323.50 L 204.50 344.50 L 183.94 344.77 C172.63,344.92 163.06,344.73 162.69,344.35 C162.31,343.98 162.00,334.07 162.00,322.33 L 162.00 301.00 L 183.00 301.00 C194.55,301.00 204.02,301.34 204.04,301.75 C204.06,302.16 204.17,311.95 204.29,323.50 ZM 252.50 362.08 C247.26,363.73 242.22,364.38 232.50,364.69 C220.34,365.07 219.17,364.94 214.40,362.67 C210.09,360.61 205.00,355.70 205.00,353.60 C205.00,352.09 211.83,353.16 213.43,354.92 C221.33,363.66 260.33,356.73 271.26,344.65 C277.26,338.02 277.18,333.60 270.89,323.32 C268.70,319.73 267.07,316.30 267.27,315.68 C267.82,314.04 278.55,324.53 280.47,328.57 C282.46,332.78 284.60,332.95 292.34,329.53 C298.47,326.82 308.54,317.58 313.82,309.81 C324.23,294.51 325.85,277.56 317.74,268.98 C314.03,265.07 311.59,261.00 312.95,261.00 C315.06,261.00 318.42,263.15 322.66,267.23 C324.94,269.43 327.30,270.93 327.90,270.56 C329.68,269.46 334.19,258.94 335.50,252.84 C337.06,245.58 336.59,229.36 334.59,221.00 C334.52,220.71 334.45,220.43 334.39,220.16 C333.28,215.57 332.87,213.86 333.50,213.29 C333.87,212.95 334.62,213.03 335.82,213.15 C335.94,213.16 336.06,213.17 336.19,213.19 C339.09,213.47 339.51,213.96 340.78,218.50 C341.66,221.65 342.22,229.23 342.31,239.00 C342.44,252.72 342.19,255.30 340.15,261.50 C337.70,268.96 334.11,275.84 331.56,277.95 C330.51,278.82 330.00,280.96 330.00,284.46 C330.00,305.75 305.83,335.75 285.62,339.54 C283.11,340.01 281.85,340.95 281.02,342.95 C278.18,349.81 266.40,357.71 252.50,362.08 ZM 319.13 371.81 C325.30,373.19 326.66,373.18 326.71,371.75 C326.84,367.54 328.13,356.60 328.58,355.87 C328.88,355.39 332.64,355.00 336.94,355.00 C343.98,355.00 344.82,354.79 345.30,352.96 C345.60,351.83 345.42,349.47 344.92,347.71 C344.41,345.95 344.00,342.93 344.00,340.98 L 344.00 337.46 L 352.12 335.78 C356.58,334.85 360.46,333.87 360.73,333.60 C361.01,333.33 360.05,329.79 358.62,325.73 C355.52,317.02 355.43,316.00 357.76,316.00 C358.74,316.00 361.10,315.16 363.01,314.13 C364.93,313.10 366.73,312.27 367.00,312.28 C367.27,312.29 368.53,311.97 369.79,311.57 C372.52,310.70 372.22,309.05 367.89,301.38 C364.35,295.10 364.31,294.21 367.57,292.97 C370.18,291.98 376.97,287.26 378.16,285.60 C379.12,284.25 374.80,278.14 373.29,278.72 C372.58,278.99 372.00,279.82 372.00,280.56 C372.00,281.30 368.85,283.94 365.00,286.43 C361.15,288.92 358.00,291.09 358.00,291.24 C358.00,291.40 358.96,294.00 360.12,297.01 C363.75,306.38 363.54,306.98 355.50,310.06 L 348.50 312.75 L 348.59 317.12 C348.64,319.53 349.02,323.55 349.45,326.05 L 350.22 330.59 L 341.86 332.55 L 333.50 334.50 L 333.78 343.13 C333.80,343.68 333.82,344.20 333.84,344.68 C333.97,348.35 334.04,350.29 333.11,351.36 C331.94,352.69 329.19,352.64 322.99,352.90 C319.42,353.04 316.31,353.36 316.07,353.59 C315.83,353.83 315.44,357.81 315.20,362.43 L 314.76 370.83 ZM 168.69 199.36 C169.07,199.74 175.94,199.93 183.94,199.78 L 198.50 199.50 L 198.57 183.75 L 198.64 168.00 L 168.00 168.00 L 168.00 183.33 C168.00,191.77 168.31,198.98 168.69,199.36 ZM 302.69 199.36 C303.07,199.74 309.94,199.93 317.94,199.78 L 332.50 199.50 L 332.50 168.50 L 302.00 167.95 L 302.00 183.31 C302.00,191.75 302.31,198.98 302.69,199.36 ZM 168.00 307.00 L 168.00 338.00 L 197.86 338.00 L 198.39 332.75 C198.69,329.86 198.80,326.04 198.64,324.25 C198.48,322.46 198.27,317.85 198.18,314.00 L 198.00 307.00 ZM 192.00 313.00 L 192.00 332.00 L 174.00 332.00 L 174.00 313.00 ZM 326.00 175.00 L 326.00 194.00 L 317.67 194.00 C313.08,194.00 309.03,193.70 308.67,193.33 C308.30,192.97 308.00,188.69 308.00,183.83 L 308.00 175.00 ZM 192.00 175.00 L 192.00 194.00 L 183.67 194.00 C179.08,194.00 175.03,193.70 174.67,193.33 C174.30,192.97 174.00,188.69 174.00,183.83 L 174.00 175.00 ZM 298.52 385.42 C300.71,386.22 303.12,386.80 303.87,386.69 C305.03,386.53 308.74,375.30 308.94,371.35 C309.01,370.07 297.91,367.79 296.80,368.84 C295.61,369.96 293.02,382.42 293.81,383.21 C294.22,383.62 296.34,384.61 298.52,385.42 ZM 174.00 225.00 L 174.00 231.00 L 171.00 231.00 C168.00,231.00 168.00,230.99 168.00,225.07 C168.00,219.34 167.91,219.12 165.25,218.82 C163.09,218.57 162.43,217.91 162.18,215.75 C161.90,213.28 162.18,213.00 164.93,213.00 C167.67,213.00 168.00,213.32 168.00,216.00 C168.00,218.67 168.33,219.00 171.00,219.00 C173.67,219.00 174.00,218.67 174.00,216.00 L 174.00 213.00 L 186.10 213.00 L 185.80 218.75 C185.52,224.14 185.34,224.50 183.00,224.50 C181.02,224.50 180.43,223.93 180.18,221.75 C179.92,219.45 179.39,219.00 176.93,219.00 C174.01,219.00 174.00,219.03 174.00,225.00 ZM 275.52 395.48 C279.21,397.57 279.62,397.62 281.08,396.10 C282.30,394.82 286.00,385.98 286.00,384.34 C286.00,384.17 284.37,383.35 282.38,382.51 C276.27,379.96 274.62,380.46 272.03,385.65 C269.33,391.06 269.73,392.20 275.52,395.48 ZM 168.00 247.07 C168.00,249.66 167.65,250.00 165.00,250.00 L 162.00 250.00 L 162.00 241.00 C162.00,240.77 162.00,240.55 162.00,240.33 C162.00,235.07 162.00,233.11 162.96,232.30 C163.58,231.78 164.59,231.73 166.24,231.60 C166.92,231.54 167.71,232.85 167.99,234.50 C168.40,236.89 169.08,237.57 171.31,237.82 C173.70,238.10 174.07,238.54 173.81,240.82 C173.57,242.91 172.89,243.57 170.75,243.82 C168.45,244.08 168.00,244.61 168.00,247.07 ZM 249.53 399.90 C253.82,403.66 254.31,403.69 256.89,400.42 C261.22,394.91 260.49,391.94 254.13,389.28 C251.00,387.97 250.60,388.03 248.38,390.11 C245.03,393.26 245.38,396.25 249.53,399.90 ZM 366.08 270.11 C368.27,273.18 368.38,273.22 369.14,271.15 C369.58,269.97 370.29,268.99 370.72,268.98 C372.41,268.93 381.94,259.44 381.24,258.50 C380.83,257.95 379.56,256.71 378.41,255.74 C376.36,254.01 376.19,254.09 371.18,259.11 C370.87,259.42 370.57,259.72 370.28,260.00 C365.89,264.39 364.39,265.89 364.50,267.26 C364.56,268.07 365.17,268.84 366.08,270.11 ZM 211.00 228.00 C211.00,230.67 211.33,231.00 214.00,231.00 C216.67,231.00 217.00,230.67 217.00,228.00 C217.00,225.33 216.67,225.00 214.00,225.00 C211.33,225.00 211.00,224.67 211.00,222.00 L 211.00 219.00 L 199.00 219.00 L 199.00 225.00 L 211.00 225.00 ZM 174.00 257.00 L 174.00 269.00 L 180.00 269.00 L 180.00 257.00 ZM 226.75 397.55 C229.90,401.51 231.58,401.90 232.53,398.90 C233.03,397.34 232.36,395.94 229.98,393.48 C224.49,387.82 221.75,391.29 226.75,397.55 ZM 198.42 260.56 C198.90,262.46 199.69,263.00 202.02,263.00 C204.76,263.00 205.00,262.72 205.00,259.50 C205.00,256.29 204.75,256.00 202.06,256.00 C198.57,256.00 197.59,257.23 198.42,260.56 ZM 271.36 185.50 C271.70,186.38 273.20,187.00 274.97,187.00 C277.67,187.00 278.00,186.67 278.00,184.00 C278.00,181.33 277.67,181.00 274.97,181.00 C271.81,181.00 270.34,182.84 271.36,185.50 ZM 185.81 234.24 C185.32,239.37 180.00,239.07 180.00,233.92 C180.00,231.33 180.35,231.00 183.06,231.00 C185.92,231.00 186.11,231.22 185.81,234.24 ZM 204.01 243.25 C203.98,245.01 199.11,243.91 198.50,242.01 C197.60,239.17 198.67,238.00 202.18,238.00 C204.86,238.00 205.16,238.28 204.63,240.25 C204.30,241.49 204.02,242.84 204.01,243.25 ZM 217.00 203.00 C217.00,205.67 217.33,206.00 220.00,206.00 C222.67,206.00 223.00,205.67 223.00,203.00 C223.00,200.33 222.67,200.00 220.00,200.00 C217.33,200.00 217.00,200.33 217.00,203.00 ZM 186.00 253.00 C186.00,255.67 186.33,256.00 189.00,256.00 C191.67,256.00 192.00,255.67 192.00,253.00 C192.00,250.33 191.67,250.00 189.00,250.00 C186.33,250.00 186.00,250.33 186.00,253.00 ZM 266.00 203.00 C266.00,205.67 266.33,206.00 269.00,206.00 C271.67,206.00 272.00,205.67 272.00,203.00 C272.00,200.33 271.67,200.00 269.00,200.00 C266.33,200.00 266.00,200.33 266.00,203.00 ZM 223.00 266.00 C223.00,268.67 222.67,269.00 220.00,269.00 C217.33,269.00 217.00,268.67 217.00,266.00 C217.00,263.33 217.33,263.00 220.00,263.00 C222.67,263.00 223.00,263.33 223.00,266.00 ZM 180.00 291.00 C180.00,293.67 179.67,294.00 177.00,294.00 C174.33,294.00 174.00,293.67 174.00,291.00 C174.00,288.33 174.33,288.00 177.00,288.00 C179.67,288.00 180.00,288.33 180.00,291.00 ZM 234.82 215.75 C234.51,218.45 231.38,220.05 229.71,218.38 C229.32,217.99 229.00,216.62 229.00,215.33 C229.00,213.40 229.52,213.00 232.07,213.00 C234.82,213.00 235.10,213.28 234.82,215.75 ZM 185.82 284.75 C185.60,286.62 184.85,287.59 183.46,287.79 C180.88,288.16 180.00,287.28 180.00,284.33 C180.00,282.40 180.52,282.00 183.07,282.00 C185.82,282.00 186.10,282.28 185.82,284.75 ZM 247.00 253.00 C247.00,255.51 246.60,256.00 244.56,256.00 C241.64,256.00 240.64,254.69 241.50,251.99 C241.91,250.72 243.02,250.00 244.57,250.00 C246.60,250.00 247.00,250.49 247.00,253.00 ZM 192.00 291.00 C192.00,293.49 191.60,294.00 189.62,294.00 C188.19,294.00 187.05,293.30 186.78,292.25 C186.05,289.43 186.99,288.00 189.58,288.00 C191.60,288.00 192.00,288.49 192.00,291.00 Z" fill="rgb(90,107,46)"/>
<path d="M 312.81 261.02 C311.78,261.32 314.18,265.22 317.74,268.98 C325.85,277.56 324.23,294.51 313.82,309.81 C308.54,317.58 298.47,326.82 292.34,329.53 C284.60,332.95 282.46,332.78 280.47,328.57 C278.55,324.53 267.82,314.04 267.27,315.68 C267.07,316.30 268.70,319.73 270.89,323.32 C277.18,333.60 277.26,338.02 271.26,344.65 C260.33,356.73 221.33,363.66 213.43,354.92 C211.89,353.22 205.49,352.16 205.03,353.44 C205.01,353.32 205.00,353.21 205.00,353.10 C205.00,352.49 206.35,352.00 208.00,352.00 C210.49,352.00 211.00,351.60 211.00,349.63 C211.00,347.34 211.16,347.29 215.75,348.18 C224.40,349.86 239.60,346.74 251.11,340.94 C257.66,337.64 268.00,328.55 268.00,326.10 C268.00,325.16 268.52,323.88 269.15,323.25 C270.01,322.39 269.89,321.48 268.65,319.59 C266.25,315.93 266.52,314.46 269.26,316.25 C270.51,317.07 273.01,318.06 274.82,318.46 C285.57,320.82 306.77,299.31 314.02,278.69 C316.51,271.59 316.50,269.41 313.95,264.64 L 311.90 260.82 ZM 319.13 371.81 L 314.76 370.83 L 315.20 362.43 C315.44,357.81 315.83,353.83 316.07,353.59 C316.31,353.36 319.42,353.04 322.99,352.90 C329.19,352.64 331.94,352.69 333.11,351.36 C334.04,350.29 333.97,348.35 333.84,344.68 C333.82,344.20 333.80,343.68 333.78,343.13 L 333.50 334.50 L 341.86 332.55 L 350.22 330.59 L 349.45 326.05 C349.02,323.55 348.64,319.53 348.59,317.12 L 348.50 312.75 L 355.50 310.06 C363.54,306.98 363.75,306.38 360.12,297.01 C358.96,294.00 358.00,291.40 358.00,291.24 C358.00,291.09 361.15,288.92 365.00,286.43 C368.85,283.94 372.00,281.30 372.00,280.56 C372.00,279.82 372.58,278.99 373.29,278.72 C374.80,278.14 379.12,284.25 378.16,285.60 C376.97,287.26 370.18,291.98 367.57,292.97 C364.31,294.21 364.35,295.10 367.89,301.38 C372.22,309.05 372.52,310.70 369.79,311.57 C368.53,311.97 367.27,312.29 367.00,312.28 C366.73,312.27 364.93,313.10 363.01,314.13 C361.10,315.16 358.74,316.00 357.76,316.00 C355.43,316.00 355.52,317.02 358.62,325.73 C360.05,329.79 361.01,333.33 360.73,333.60 C360.46,333.87 356.58,334.85 352.12,335.78 L 344.00 337.46 L 344.00 340.98 C344.00,342.93 344.41,345.95 344.92,347.71 C345.42,349.47 345.60,351.83 345.30,352.96 C344.82,354.79 343.98,355.00 336.94,355.00 C332.64,355.00 328.88,355.39 328.58,355.87 C328.13,356.60 326.84,367.54 326.71,371.75 C326.66,373.18 325.30,373.19 319.13,371.81 ZM 313.98 140.75 C312.78,142.54 312.06,144.00 312.36,144.00 C313.55,144.00 317.48,139.17 322.52,131.50 C327.34,124.15 338.00,102.47 338.00,100.00 C338.00,98.32 343.08,96.86 346.40,97.59 C349.19,98.20 349.34,98.11 348.05,96.56 C347.22,95.56 346.19,94.71 345.06,94.02 C346.81,94.93 348.72,96.15 350.75,97.67 C355.70,101.37 355.23,104.87 348.88,111.83 C343.72,117.46 341.45,120.70 336.80,129.00 C335.41,131.48 333.34,135.07 332.20,137.00 C329.26,141.98 325.75,151.79 326.49,152.99 C326.84,153.54 328.44,154.00 330.05,154.00 C332.78,154.00 333.30,153.33 337.37,144.61 L 332.98 154.00 L 323.14 154.00 C312.99,154.00 309.43,152.93 305.66,147.18 C307.34,149.22 308.64,148.11 311.47,144.32 C314.50,140.27 319.27,131.25 323.43,122.15 C319.95,129.91 316.18,137.46 313.98,140.75 ZM 358.10 242.93 L 364.19 230.57 L 359.93 226.60 L 355.67 222.62 L 358.02 215.73 C360.01,209.89 360.15,208.71 358.93,207.96 C356.83,206.67 354.09,204.75 351.39,202.68 C349.58,201.30 349.23,200.44 349.93,199.13 C350.44,198.18 351.15,194.84 351.52,191.72 C352.15,186.32 352.06,185.98 349.65,184.88 C348.25,184.25 346.97,183.23 346.81,182.61 C346.64,182.00 346.64,176.44 346.81,170.25 L 347.00 163.49 L 347.00 170.53 C347.00,178.87 347.35,182.18 348.25,182.48 C349.72,182.96 356.73,183.91 359.25,183.96 C361.53,184.01 361.47,186.24 359.00,193.26 C357.90,196.39 357.00,199.54 357.00,200.26 C357.00,201.42 369.39,207.00 371.98,207.00 C373.60,207.00 373.28,208.05 369.27,215.80 L 365.50 223.11 L 368.50 225.57 C370.15,226.92 373.19,228.79 375.25,229.71 C379.95,231.81 379.99,233.62 375.47,239.04 C373.53,241.36 371.09,244.34 370.05,245.66 L 368.17 248.05 L 363.09 245.05 C360.63,243.60 358.56,242.74 358.10,242.93 ZM 333.69 213.17 C333.62,213.20 333.55,213.24 333.50,213.29 C332.87,213.86 333.28,215.57 334.39,220.16 C334.45,220.43 334.52,220.71 334.59,221.00 C336.59,229.36 337.06,245.58 335.50,252.84 C334.19,258.94 329.68,269.46 327.90,270.56 C327.30,270.93 324.94,269.43 322.66,267.23 C319.61,264.30 317.01,262.36 315.01,261.50 L 315.02 261.50 C318.87,262.35 321.49,260.28 324.04,254.38 C327.65,246.02 329.00,238.11 329.00,225.37 L 329.00 212.90 ZM 298.52 385.42 C296.34,384.61 294.22,383.62 293.81,383.21 C293.02,382.42 295.61,369.96 296.80,368.84 C297.91,367.79 309.01,370.07 308.94,371.35 C308.74,375.30 305.03,386.53 303.87,386.69 C303.12,386.80 300.71,386.22 298.52,385.42 ZM 275.52 395.48 C269.73,392.20 269.33,391.06 272.03,385.65 C274.62,380.46 276.27,379.96 282.38,382.51 C284.37,383.35 286.00,384.17 286.00,384.34 C286.00,385.98 282.30,394.82 281.08,396.10 C279.62,397.62 279.21,397.57 275.52,395.48 ZM 249.53 399.90 C245.38,396.25 245.03,393.26 248.38,390.11 C250.60,388.03 251.00,387.97 254.13,389.28 C260.49,391.94 261.22,394.91 256.89,400.42 C254.31,403.69 253.82,403.66 249.53,399.90 ZM 366.08 270.11 C365.17,268.84 364.56,268.07 364.50,267.26 C364.39,265.89 365.89,264.39 370.28,260.00 C370.57,259.72 370.87,259.42 371.18,259.11 C376.19,254.09 376.36,254.01 378.41,255.74 C379.56,256.71 380.83,257.95 381.24,258.50 C381.94,259.44 372.41,268.93 370.72,268.98 C370.29,268.99 369.58,269.97 369.14,271.15 C368.38,273.22 368.27,273.18 366.08,270.11 ZM 191.00 383.22 C192.77,382.92 195.97,381.78 198.56,380.52 C204.55,377.58 207.42,378.15 210.31,382.84 C211.22,384.30 212.81,386.59 213.86,387.93 L 215.19 389.61 C214.89,389.69 214.65,389.70 214.48,389.63 C213.55,389.27 213.00,389.67 213.00,390.70 C213.00,391.60 212.72,392.05 212.38,391.71 C212.03,391.37 210.99,392.03 210.05,393.18 C208.39,395.24 208.29,395.13 205.40,387.89 C202.58,380.84 202.31,380.51 199.48,380.83 C197.86,381.00 196.04,381.55 195.44,382.05 C194.85,382.54 192.86,383.06 191.00,383.22 ZM 226.75 397.55 C221.75,391.29 224.49,387.82 229.98,393.48 C232.36,395.94 233.03,397.34 232.53,398.90 C231.58,401.90 229.90,401.51 226.75,397.55 ZM 340.62 217.96 C339.70,214.72 339.19,213.78 337.59,213.40 L 339.38 213.50 ZM 358.00 243.12 C358.09,243.78 359.72,246.67 361.74,249.73 L 357.73 243.68 ZM 303.24 143.00 C301.68,140.17 300.02,137.77 299.30,137.29 C299.33,137.30 299.36,137.31 299.39,137.32 C300.13,137.60 301.72,139.86 302.92,142.34 C303.03,142.57 303.14,142.79 303.24,143.00 ZM 340.66 92.32 C338.27,91.87 336.05,92.24 334.90,93.62 C336.12,92.15 338.10,91.73 340.66,92.32 ZM 207.94 358.01 C209.77,359.80 212.19,361.61 214.40,362.67 C212.04,361.54 209.70,359.79 207.94,358.01 ZM 188.52 383.17 C187.39,382.77 186.99,381.34 185.84,377.13 C185.48,375.82 185.11,374.56 184.77,373.48 C185.11,374.56 185.48,375.81 185.84,377.13 C186.98,381.30 187.45,382.74 188.52,383.17 Z" fill="rgb(120,141,66)"/>
<path d="M 312.81 261.02 L 311.90 260.82 L 313.95 264.64 C316.50,269.41 316.51,271.59 314.02,278.69 C306.77,299.31 285.57,320.82 274.82,318.46 C273.01,318.06 270.51,317.07 269.26,316.25 C266.52,314.46 266.25,315.93 268.65,319.59 C269.89,321.48 270.01,322.39 269.15,323.25 C268.52,323.88 268.00,325.16 268.00,326.10 C268.00,328.55 257.66,337.64 251.11,340.94 C239.60,346.74 224.40,349.86 215.75,348.18 C211.16,347.29 211.00,347.34 211.00,349.63 L 211.00 341.69 C211.00,331.48 211.05,331.29 215.38,322.80 C220.51,312.73 224.58,306.65 228.97,302.50 C231.80,299.81 232.78,299.51 238.32,299.55 C244.56,299.61 250.26,301.74 255.88,306.14 C258.56,308.22 260.00,308.51 260.00,306.96 C260.00,305.10 250.66,295.87 246.77,293.89 C243.37,292.15 243.00,291.57 243.00,288.00 C243.00,279.19 251.47,263.22 260.60,254.80 C267.45,248.49 269.51,247.66 278.50,247.63 C286.34,247.60 288.02,248.06 300.75,253.66 C303.11,254.70 302.00,251.80 298.94,248.95 C294.98,245.25 286.59,241.17 280.96,240.21 C278.14,239.73 276.41,238.87 276.21,237.88 C275.72,235.29 279.86,225.43 284.16,219.00 L 288.19 212.97 L 313.78 213.23 L 329.00 213.39 L 329.00 225.37 C329.00,238.11 327.65,246.02 324.04,254.38 C321.49,260.28 318.87,262.35 315.02,261.50 L 315.01 261.50 C314.23,261.17 313.54,261.00 312.95,261.00 C312.90,261.00 312.85,261.01 312.81,261.02 ZM 358.10 242.93 C358.03,242.96 358.00,243.01 358.00,243.07 L 357.73 243.68 L 361.74 249.72 L 361.74 249.73 C361.79,249.80 361.83,249.86 361.88,249.93 L 365.75 255.77 L 360.76 260.76 L 355.77 265.76 L 359.55 272.52 C359.77,272.92 359.98,273.29 360.18,273.64 C361.80,276.52 362.67,278.05 362.36,279.30 C361.98,280.88 359.72,282.01 354.75,284.81 C352.14,286.29 350.00,287.98 350.00,288.58 C350.00,289.17 351.12,292.42 352.50,295.81 C353.88,299.19 355.00,302.32 355.00,302.75 C355.00,303.19 351.62,304.80 347.50,306.34 C343.38,307.87 340.00,309.53 340.00,310.01 C340.00,310.79 341.17,317.07 342.54,323.65 C342.95,325.60 342.36,325.90 336.24,326.94 C330.69,327.89 328.22,328.10 327.20,329.43 C326.39,330.49 326.50,332.24 326.70,335.60 C326.73,336.18 326.77,336.82 326.81,337.51 L 327.25 346.00 L 323.26 346.00 C321.07,346.00 317.22,346.28 314.70,346.63 L 310.12 347.26 L 308.72 363.22 L 303.61 362.44 C300.80,362.01 296.96,361.62 295.07,361.58 C291.66,361.50 291.64,361.52 289.90,368.37 C288.94,372.15 287.72,375.68 287.19,376.21 C286.55,376.85 284.63,376.49 281.71,375.20 C279.23,374.10 275.92,372.92 274.35,372.58 C271.63,371.98 271.34,372.28 268.05,379.04 C266.16,382.94 264.27,386.33 263.86,386.59 C263.45,386.84 260.61,385.45 257.55,383.49 C254.50,381.54 251.38,379.70 250.63,379.41 C249.79,379.09 247.26,381.44 244.07,385.51 L 238.87 392.13 L 233.26 386.56 C230.17,383.50 227.38,381.00 227.06,381.00 C226.73,381.00 224.10,383.07 221.21,385.60 C218.68,387.81 216.43,389.29 215.19,389.61 L 213.86 387.93 C212.81,386.59 211.22,384.30 210.31,382.84 C207.42,378.15 204.55,377.58 198.56,380.52 C195.97,381.78 192.77,382.92 191.00,383.22 L 190.97 383.22 C189.84,383.31 189.09,383.37 188.52,383.17 C187.45,382.74 186.98,381.30 185.84,377.13 C185.48,375.82 185.11,374.57 184.78,373.50 L 184.77 373.48 C184.21,371.69 183.75,370.41 183.57,370.24 C183.28,369.95 179.77,370.17 175.77,370.72 C171.77,371.28 168.29,371.55 168.03,371.32 C167.78,371.09 167.48,368.11 167.36,364.70 C167.25,361.29 167.12,358.00 167.08,357.39 C167.03,356.75 163.86,356.05 159.40,355.71 C155.22,355.40 151.59,354.92 151.32,354.65 C151.05,354.38 151.38,350.74 152.06,346.56 C152.73,342.37 153.02,338.69 152.70,338.36 C152.38,338.04 149.08,337.14 145.36,336.36 C141.65,335.59 138.39,334.73 138.12,334.45 C137.85,334.18 138.61,330.90 139.81,327.16 C141.01,323.42 142.00,319.69 142.00,318.86 C142.00,317.93 139.64,316.53 135.75,315.16 C130.76,313.39 128.37,312.67 127.85,311.25 C127.39,310.01 128.38,308.23 130.32,304.73 C130.51,304.39 130.71,304.02 130.92,303.65 L 135.10 296.07 L 128.97 292.29 C125.59,290.20 122.18,288.05 121.39,287.50 C120.22,286.68 121.01,285.22 125.67,279.61 L 131.38 272.73 L 128.94 270.77 C127.60,269.69 124.54,266.98 122.14,264.74 L 117.77 260.68 L 121.14 257.74 C122.99,256.12 126.07,253.54 127.99,252.00 L 131.48 249.19 L 128.02 244.35 C126.12,241.68 123.76,238.63 122.78,237.56 C121.80,236.50 121.00,235.37 121.01,235.06 C121.01,234.45 126.01,231.31 130.00,229.40 C136.45,226.33 136.50,226.10 132.57,218.57 C130.61,214.80 129.00,211.21 129.00,210.59 C129.00,209.97 132.60,208.19 137.00,206.62 C141.40,205.06 144.99,203.27 144.98,202.64 C144.96,202.01 144.06,198.84 142.98,195.59 C139.94,186.51 140.03,186.31 147.25,185.34 L 153.50 184.50 L 153.78 171.83 C153.84,169.08 153.88,166.92 153.89,165.22 C153.99,168.56 154.00,173.64 154.00,181.45 L 154.00 203.77 L 150.03 211.70 C132.76,246.20 132.57,289.11 149.53,321.96 L 154.00 330.61 L 154.00 352.00 L 162.33 352.00 C170.02,352.00 170.84,352.20 173.08,354.61 C179.64,361.68 195.88,370.26 209.00,373.59 C218.91,376.11 239.45,376.20 249.50,373.77 C262.54,370.61 273.00,366.47 282.50,360.70 C294.63,353.33 298.68,350.28 307.60,341.75 C327.03,323.17 340.30,302.20 347.45,278.76 C354.79,254.71 355.13,228.99 348.39,209.46 C345.76,201.85 345.76,201.85 346.49,180.42 L 346.75 172.86 C346.64,177.93 346.66,182.09 346.81,182.61 C346.97,183.23 348.25,184.25 349.65,184.88 C352.06,185.98 352.15,186.32 351.52,191.72 C351.15,194.84 350.44,198.18 349.93,199.13 C349.23,200.44 349.58,201.30 351.39,202.68 C354.09,204.75 356.83,206.67 358.93,207.96 C360.15,208.71 360.01,209.89 358.02,215.73 L 355.67 222.62 L 359.93 226.60 L 364.19 230.57 L 360.96 237.13 ZM 176.61 151.41 C177.35,148.49 178.05,148.50 188.25,151.59 C194.35,153.43 194.81,153.36 195.50,150.39 C197.24,142.81 199.59,136.00 200.46,136.03 C201.03,136.04 204.75,137.78 208.73,139.89 L 215.96 143.73 L 218.76 138.61 C220.30,135.80 222.19,132.26 222.95,130.75 C223.71,129.24 224.65,128.00 225.04,128.00 C225.43,128.00 228.56,130.25 232.00,133.00 C235.44,135.75 238.60,138.00 239.02,138.00 C239.45,138.00 241.38,136.09 243.31,133.75 C245.25,131.41 247.77,128.38 248.91,127.00 L 250.99 124.50 L 253.74 127.57 C255.26,129.25 257.89,132.40 259.60,134.55 L 262.70 138.47 L 266.60 135.52 C268.74,133.90 271.10,131.99 271.83,131.28 C273.44,129.71 277.06,127.71 277.46,128.17 C277.62,128.35 279.22,131.13 281.02,134.34 C282.82,137.55 284.94,140.42 285.74,140.73 C286.54,141.04 289.63,140.28 292.61,139.04 C295.49,137.85 298.43,137.08 299.30,137.29 C300.02,137.77 301.68,140.17 303.24,143.00 C304.21,144.96 304.97,146.34 305.66,147.18 C309.43,152.93 312.99,154.00 323.14,154.00 L 317.96 154.00 C303.38,154.00 302.78,153.92 297.20,151.10 C288.96,146.94 275.91,143.25 265.43,142.12 C249.46,140.40 228.21,144.30 213.79,151.61 C209.28,153.89 208.16,154.00 189.40,154.00 L 172.84 154.00 C175.37,154.00 176.09,153.50 176.61,151.41 ZM 153.93 267.75 C153.97,289.89 153.86,308.00 153.69,308.00 C152.91,308.00 149.90,299.82 148.90,294.93 C146.43,282.94 146.12,280.04 146.06,268.70 C146.00,256.01 148.75,238.99 152.08,231.50 C153.82,227.58 153.86,228.30 153.93,267.75 ZM 313.98 140.75 C316.18,137.46 319.95,129.91 323.43,122.15 C326.24,116.02 328.77,109.85 330.31,105.13 C332.09,99.70 334.15,94.52 334.90,93.62 C336.05,92.24 338.27,91.87 340.66,92.32 C341.98,92.62 343.45,93.19 345.06,94.02 C346.19,94.71 347.22,95.56 348.05,96.56 C349.34,98.11 349.19,98.20 346.40,97.59 C343.08,96.86 338.00,98.32 338.00,100.00 C338.00,102.47 327.34,124.15 322.52,131.50 C317.48,139.17 313.55,144.00 312.36,144.00 C312.06,144.00 312.78,142.54 313.98,140.75 ZM 256.67 274.31 C257.42,276.48 257.43,276.48 257.80,274.09 C258.09,272.23 258.39,272.00 259.08,273.09 C259.80,274.23 259.97,274.17 259.98,272.75 C259.99,271.79 260.35,271.11 260.78,271.25 C261.21,271.39 263.91,268.91 266.78,265.74 C269.65,262.57 272.00,260.23 272.00,260.53 C272.00,260.83 272.97,260.18 274.15,259.07 C275.33,257.97 276.64,257.28 277.06,257.54 C277.47,257.79 277.58,257.10 277.29,256.00 C276.73,253.87 276.11,253.64 273.59,254.60 C272.72,254.94 272.31,255.72 272.67,256.35 C273.03,256.98 272.97,257.18 272.53,256.79 C270.69,255.13 260.02,263.62 260.00,266.75 C260.00,267.44 259.66,268.00 259.24,268.00 C257.62,268.00 255.92,272.17 256.67,274.31 ZM 272.50 152.75 C274.09,153.70 270.65,153.93 255.50,153.88 C241.09,153.84 237.23,153.58 239.50,152.79 C243.84,151.30 270.01,151.26 272.50,152.75 ZM 286.00 231.40 C286.00,236.60 289.12,233.90 290.74,227.30 C291.72,223.28 291.53,222.00 289.95,222.00 C288.77,222.00 286.00,228.60 286.00,231.40 ZM 254.50 275.00 C254.16,275.55 254.36,276.00 254.94,276.00 C255.52,276.00 256.00,275.55 256.00,275.00 C256.00,274.45 255.80,274.00 255.56,274.00 C255.32,274.00 254.84,274.45 254.50,275.00 Z" fill="rgb(165,182,99)"/>
<path d="M 0.00 250.00 L 0.00 0.00 L 250.00 0.00 L 500.00 0.00 L 500.00 250.00 L 500.00 500.00 L 250.00 500.00 L 0.00 500.00 L 0.00 250.00 ZM 261.00 407.00 C263.89,402.60 266.70,399.00 267.24,399.00 C267.78,399.00 271.58,401.09 275.67,403.64 C279.95,406.30 283.48,407.90 283.97,407.39 C284.44,406.90 286.29,402.97 288.08,398.66 C291.84,389.65 291.45,389.77 303.28,394.37 C308.24,396.30 310.16,396.67 310.43,395.75 C310.63,395.06 311.57,391.01 312.52,386.73 C313.47,382.46 314.53,378.79 314.89,378.57 C315.25,378.35 319.45,378.97 324.24,379.95 C329.03,380.92 333.18,381.49 333.47,381.20 C333.76,380.90 334.00,377.18 334.00,372.92 C334.00,361.60 333.61,362.00 344.72,362.00 L 354.22 362.00 L 353.59 358.25 C353.25,356.19 352.70,352.00 352.38,348.95 L 351.79 343.39 L 356.97 342.20 C359.82,341.54 363.16,341.00 364.39,341.00 C365.61,341.00 367.44,340.40 368.45,339.66 C370.22,338.37 370.20,338.09 368.05,331.91 C364.33,321.22 364.35,321.16 373.08,318.04 C377.25,316.55 381.18,315.01 381.81,314.62 C382.60,314.13 381.55,311.29 378.45,305.56 L 373.93 297.21 L 381.97 292.58 C386.39,290.03 390.00,287.45 390.00,286.84 C390.00,286.23 387.52,282.83 384.50,279.28 C381.48,275.74 379.00,272.48 379.00,272.05 C379.00,271.61 381.91,269.06 385.46,266.38 C389.02,263.70 392.21,260.83 392.54,260.00 C392.95,259.02 391.85,257.46 389.38,255.50 C387.31,253.85 384.07,251.13 382.18,249.45 L 378.76 246.40 L 384.78 238.95 C388.09,234.85 390.61,231.19 390.37,230.80 C390.14,230.42 386.58,228.19 382.47,225.85 C378.36,223.52 375.00,221.30 375.00,220.94 C375.00,220.58 376.81,216.98 379.03,212.94 C381.25,208.91 382.85,205.05 382.59,204.36 C382.32,203.68 378.60,202.01 374.30,200.66 C369.04,199.00 366.39,197.65 366.16,196.50 C365.97,195.56 367.02,191.40 368.49,187.26 C371.60,178.51 371.57,178.47 362.57,177.50 C352.10,176.39 352.63,176.97 353.31,167.39 L 353.90 159.00 L 350.56 159.00 L 347.22 159.00 L 346.49 180.42 C345.76,201.85 345.76,201.85 348.39,209.46 C355.13,228.99 354.79,254.71 347.45,278.76 C340.30,302.20 327.03,323.17 307.60,341.75 C298.68,350.28 294.63,353.33 282.50,360.70 C273.00,366.47 262.54,370.61 249.50,373.77 C239.45,376.20 218.91,376.11 209.00,373.59 C195.88,370.26 179.64,361.68 173.08,354.61 C170.84,352.20 170.02,352.00 162.33,352.00 L 154.00 352.00 L 154.00 341.30 L 154.00 330.61 L 149.53 321.96 C132.57,289.11 132.76,246.20 150.03,211.70 L 154.00 203.77 L 154.00 181.45 C154.00,159.74 153.94,159.12 151.92,158.48 C150.78,158.11 149.72,157.97 149.57,158.16 C149.42,158.35 149.69,162.51 150.18,167.42 C150.72,172.85 150.70,176.70 150.14,177.26 C149.63,177.77 145.53,178.66 141.02,179.23 C136.18,179.85 132.63,180.80 132.34,181.55 C132.08,182.24 132.98,186.34 134.35,190.66 C136.25,196.61 136.56,198.76 135.67,199.58 C135.03,200.17 131.21,201.71 127.19,203.01 C123.17,204.31 119.66,205.74 119.39,206.18 C119.11,206.62 120.79,210.63 123.11,215.09 C126.53,221.67 127.06,223.35 125.91,224.06 C125.13,224.54 121.46,226.60 117.75,228.63 C114.04,230.67 111.01,232.82 111.01,233.42 C111.02,234.01 113.52,237.43 116.57,241.00 L 122.12 247.50 L 115.03 254.00 C111.14,257.58 107.96,260.76 107.97,261.08 C107.99,261.39 110.93,264.02 114.50,266.92 C120.31,271.64 122.50,275.17 120.25,276.17 C118.23,277.07 110.86,287.20 111.34,288.43 C111.63,289.21 115.05,291.70 118.94,293.96 C122.82,296.23 126.00,298.31 126.00,298.59 C126.00,298.86 123.99,302.52 121.53,306.72 C118.57,311.77 117.37,314.75 117.99,315.49 C118.51,316.11 121.22,317.24 124.03,318.01 C126.83,318.77 129.35,319.76 129.62,320.20 C129.89,320.64 130.99,321.00 132.06,321.00 C134.59,321.00 134.52,321.95 131.27,331.14 C129.76,335.39 128.79,339.12 129.10,339.44 C129.42,339.75 133.35,340.75 137.84,341.65 C142.33,342.55 145.98,343.78 145.97,344.39 C145.95,345.00 145.11,348.97 144.10,353.22 C143.09,357.46 142.51,361.18 142.80,361.47 C143.09,361.76 147.30,362.00 152.15,362.00 L 160.96 362.00 L 160.83 370.51 C160.75,375.19 160.91,379.24 161.18,379.51 C161.44,379.78 164.33,379.54 167.58,378.99 C170.84,378.43 174.69,377.78 176.13,377.54 C178.55,377.13 178.87,377.49 179.94,381.80 C182.57,392.31 183.11,394.00 183.87,394.00 C184.30,394.00 187.42,392.88 190.81,391.50 C194.19,390.12 197.37,389.00 197.87,389.00 C198.37,389.00 200.23,392.60 202.00,397.00 C203.77,401.40 205.34,405.00 205.49,405.00 C205.64,405.00 208.37,403.42 211.57,401.50 C214.77,399.58 217.86,398.00 218.45,398.00 C219.04,398.00 221.32,401.00 223.52,404.67 C225.72,408.34 227.99,411.50 228.55,411.68 C229.11,411.87 232.10,409.77 235.20,407.01 C238.29,404.26 241.20,402.01 241.66,402.02 C242.12,402.03 245.41,404.95 248.97,408.52 C252.53,412.08 255.51,415.00 255.60,415.00 C255.68,415.00 258.11,411.40 261.00,407.00 ZM 252.50 362.08 C266.40,357.71 278.18,349.81 281.02,342.95 C281.85,340.95 283.11,340.01 285.62,339.54 C305.83,335.75 330.00,305.75 330.00,284.46 C330.00,280.96 330.51,278.82 331.56,277.95 C334.11,275.84 337.70,268.96 340.15,261.50 C342.19,255.30 342.44,252.72 342.31,239.00 C342.22,229.18 341.66,221.67 340.77,218.50 L 339.37 213.50 L 313.78 213.23 L 288.19 212.97 L 284.16 219.00 C279.86,225.43 275.72,235.29 276.21,237.88 C276.41,238.87 278.14,239.73 280.96,240.21 C286.59,241.17 294.98,245.25 298.94,248.95 C302.00,251.80 303.11,254.70 300.75,253.66 C288.02,248.06 286.34,247.60 278.50,247.63 C269.51,247.66 267.45,248.49 260.60,254.80 C251.47,263.22 243.00,279.19 243.00,288.00 C243.00,291.57 243.37,292.15 246.77,293.89 C250.66,295.87 260.00,305.10 260.00,306.96 C260.00,308.51 258.56,308.22 255.88,306.14 C250.26,301.74 244.56,299.61 238.32,299.55 C232.78,299.51 231.80,299.81 228.97,302.50 C224.58,306.65 220.51,312.73 215.38,322.80 C211.05,331.29 211.00,331.48 211.00,341.69 L 211.00 352.00 L 208.00 352.00 C206.35,352.00 205.00,352.49 205.00,353.10 C205.00,355.66 209.67,360.41 214.40,362.67 C219.17,364.94 220.34,365.07 232.50,364.69 C242.22,364.38 247.26,363.73 252.50,362.08 ZM 204.29 323.50 C204.17,311.95 204.06,302.16 204.04,301.75 C204.02,301.34 194.55,301.00 183.00,301.00 L 162.00 301.00 L 162.00 322.33 C162.00,334.07 162.31,343.98 162.69,344.35 C163.06,344.73 172.63,344.92 183.94,344.77 L 204.50 344.50 L 204.29 323.50 ZM 153.93 267.75 C153.86,228.30 153.82,227.58 152.08,231.50 C148.75,238.99 146.00,256.01 146.06,268.70 C146.12,280.04 146.43,282.94 148.90,294.93 C149.90,299.82 152.91,308.00 153.69,308.00 C153.86,308.00 153.97,289.89 153.93,267.75 ZM 216.80 300.25 C217.09,294.09 217.14,294.00 220.00,294.00 C222.86,294.00 222.91,293.91 223.20,287.75 C223.49,281.76 223.61,281.49 226.25,281.18 C228.39,280.94 229.00,280.34 229.00,278.50 C229.00,276.66 229.61,276.06 231.75,275.82 C234.39,275.51 234.51,275.24 234.80,269.25 C235.09,263.03 235.11,263.00 238.11,263.00 C240.91,263.00 241.10,262.77 240.81,259.75 C240.62,257.75 239.92,256.45 239.00,256.37 C238.18,256.29 236.94,256.18 236.25,256.12 C235.55,256.05 235.00,254.67 235.00,253.00 C235.00,250.33 235.33,250.00 238.00,250.00 L 241.00 250.00 L 241.00 237.50 L 241.00 225.00 L 247.50 225.00 L 254.00 225.00 L 254.00 227.94 C254.00,230.52 253.61,230.91 250.75,231.19 L 247.50 231.50 L 247.50 237.50 C247.50,243.26 247.61,243.51 250.18,243.81 C252.56,244.08 252.90,243.75 253.18,240.81 C253.46,237.89 253.82,237.52 256.25,237.69 C258.98,237.88 259.00,237.84 259.00,231.50 L 259.00 225.13 L 262.25 224.81 C264.96,224.55 265.55,224.04 265.82,221.75 C266.06,219.61 266.66,219.00 268.50,219.00 C270.86,219.00 272.37,216.63 271.78,213.85 C271.61,213.03 272.57,212.38 274.25,212.18 C276.69,211.90 277.00,211.45 277.01,208.18 C277.04,201.75 277.92,200.00 281.12,200.00 C283.67,200.00 284.00,200.35 284.00,203.07 C284.00,205.82 284.28,206.10 286.75,205.82 C289.35,205.52 289.52,205.19 289.80,199.75 L 290.10 194.00 L 284.67 194.00 C278.90,194.00 276.56,192.53 277.18,189.30 C277.45,187.88 278.77,187.40 283.51,187.00 L 289.50 186.50 L 289.78 174.25 L 290.06 162.00 L 287.08 162.00 C284.12,162.00 284.09,162.05 283.80,168.25 L 283.50 174.50 L 277.75 174.80 C272.12,175.09 272.00,175.16 272.00,178.05 C272.00,180.66 271.66,181.00 269.00,181.00 L 266.00 181.00 L 266.00 190.50 L 266.00 200.00 L 262.45 200.00 L 258.90 200.00 L 259.20 205.74 C259.49,211.26 259.62,211.51 262.50,212.00 C265.04,212.43 265.55,213.02 265.82,215.82 C266.13,219.03 266.03,219.13 262.82,218.82 C260.04,218.55 259.45,218.05 259.18,215.75 C258.94,213.61 258.34,213.00 256.50,213.00 C254.66,213.00 254.06,213.61 253.82,215.75 C253.55,218.07 253.03,218.50 250.50,218.50 C247.95,218.50 247.45,218.07 247.18,215.69 C246.90,213.30 246.46,212.93 244.18,213.19 C241.66,213.48 241.48,213.85 241.20,219.25 C240.91,224.88 240.84,225.00 237.95,225.00 L 235.00 225.00 L 235.00 234.50 L 235.00 244.00 L 232.00 244.00 C229.34,244.00 229.00,243.66 229.00,241.05 C229.00,238.16 228.88,238.09 223.25,237.80 C217.57,237.50 217.50,237.46 217.19,234.25 C216.89,231.22 217.08,231.00 219.94,231.00 C222.67,231.00 223.00,230.68 223.00,228.00 C223.00,225.33 222.67,225.00 220.00,225.00 C217.35,225.00 217.00,224.66 217.00,222.07 C217.00,219.61 217.45,219.08 219.75,218.82 C222.04,218.55 222.55,217.96 222.81,215.25 C223.09,212.39 223.48,212.00 226.06,212.00 C228.99,212.00 229.00,211.97 229.00,206.00 L 229.00 200.00 L 226.00 200.00 C223.33,200.00 223.00,199.67 223.00,197.00 C223.00,194.00 223.01,194.00 228.95,194.00 L 234.90 194.00 L 235.20 199.75 C235.48,205.19 235.65,205.52 238.25,205.82 C240.72,206.10 241.00,205.82 241.00,203.07 C241.00,200.33 241.32,200.00 244.00,200.00 C246.87,200.00 247.01,200.19 247.12,204.50 C247.32,211.41 247.34,211.48 249.89,211.84 C253.26,212.32 253.77,210.89 253.37,201.92 L 253.02 194.00 L 256.01 194.00 L 259.00 194.00 L 259.00 187.56 L 259.00 181.13 L 262.25 180.81 C264.96,180.55 265.55,180.04 265.82,177.75 C266.03,175.93 266.72,175.00 267.87,175.00 C270.27,175.00 272.00,173.03 272.00,170.30 C272.00,168.51 272.56,168.00 274.50,168.00 C276.61,168.00 277.00,167.53 277.00,165.00 C277.00,162.03 276.94,162.00 271.50,162.00 C266.06,162.00 266.00,162.03 266.00,165.00 C266.00,167.64 265.65,168.00 263.11,168.00 C260.17,168.00 259.00,169.44 259.00,173.08 C259.00,174.46 258.30,175.00 256.50,175.00 C254.11,175.00 254.00,175.26 254.00,181.06 L 254.00 187.13 L 250.75 186.81 C248.02,186.55 247.45,186.05 247.18,183.69 C246.90,181.30 246.46,180.93 244.18,181.19 C241.63,181.48 241.49,181.80 241.20,187.75 C240.91,193.94 240.88,194.00 237.95,194.00 L 235.00 194.00 L 235.00 184.50 L 235.00 175.00 L 240.46 175.00 C244.97,175.00 246.12,174.64 247.04,172.92 C247.65,171.78 247.91,170.20 247.61,169.42 C247.21,168.39 247.88,168.00 250.03,168.00 C252.66,168.00 253.00,167.66 253.00,165.00 L 253.00 162.00 L 247.00 162.00 L 241.00 162.00 L 241.00 165.00 C241.00,168.00 240.99,168.00 235.06,168.00 L 229.13 168.00 L 228.81 171.25 C228.55,173.97 228.09,174.50 226.00,174.50 C223.63,174.50 223.48,174.17 223.20,168.25 L 222.90 162.00 L 216.90 162.00 L 210.90 162.00 L 211.20 168.25 C211.49,174.24 211.61,174.51 214.25,174.82 C216.55,175.08 217.00,175.61 217.00,178.07 C217.00,180.66 216.65,181.00 214.00,181.00 C211.33,181.00 211.00,181.33 211.00,184.00 C211.00,186.67 211.33,187.00 214.00,187.00 C216.67,187.00 217.00,186.67 217.00,184.00 L 217.00 181.00 L 223.00 181.00 L 229.00 181.00 L 229.00 184.00 C229.00,186.67 228.67,187.00 226.00,187.00 C223.24,187.00 223.00,187.28 223.00,190.50 C223.00,193.72 222.76,194.00 220.00,194.00 C217.33,194.00 217.00,194.33 217.00,197.00 C217.00,199.66 216.66,200.00 214.05,200.00 C211.12,200.00 211.09,200.06 210.80,206.25 L 210.50 212.50 L 201.25 212.79 L 192.00 213.08 L 192.00 219.04 C192.00,224.73 191.89,225.00 189.50,225.00 C187.39,225.00 187.00,225.47 187.00,228.00 C187.00,230.51 187.40,231.00 189.44,231.00 C191.45,231.00 191.93,231.56 192.19,234.25 C192.46,237.12 192.89,237.54 195.79,237.82 C198.93,238.12 199.04,238.01 198.40,235.32 C197.44,231.30 197.16,231.00 194.44,231.00 C192.40,231.00 192.00,230.51 192.00,228.00 C192.00,225.24 192.28,225.00 195.50,225.00 C198.72,225.00 199.00,225.24 199.00,228.00 C199.00,230.67 199.33,231.00 202.00,231.00 C204.67,231.00 205.00,231.33 205.00,234.00 C205.00,236.68 205.33,237.00 208.06,237.00 C210.92,237.00 211.11,237.22 210.81,240.25 C210.55,242.96 210.04,243.55 207.75,243.82 C205.45,244.08 205.00,244.61 205.00,247.07 C205.00,249.66 204.65,250.00 202.00,250.00 C199.33,250.00 199.00,249.67 199.00,247.00 L 199.00 244.00 L 189.50 244.00 L 180.00 244.00 L 180.00 247.00 C180.00,249.67 179.67,250.00 177.00,250.00 C174.33,250.00 174.00,250.33 174.00,253.00 C174.00,256.19 174.37,256.04 165.50,256.38 C162.88,256.49 162.46,256.91 162.19,259.75 C161.89,262.78 162.08,263.00 164.94,263.00 C167.67,263.00 168.00,263.32 168.00,266.00 C168.00,268.67 167.67,269.00 165.00,269.00 L 162.00 269.00 L 162.00 281.50 L 162.00 294.00 L 165.00 294.00 L 168.00 294.00 L 168.00 285.00 L 168.00 276.00 L 171.00 276.00 C173.55,276.00 174.00,276.38 174.00,278.57 C174.00,280.78 174.38,281.09 176.75,280.82 C179.35,280.52 179.52,280.19 179.80,274.81 C180.08,269.46 180.26,269.11 182.80,268.81 C184.91,268.57 185.57,267.90 185.82,265.75 C186.13,263.07 186.29,263.00 192.57,263.00 L 199.00 263.00 L 199.00 266.00 C199.00,268.99 198.99,269.00 193.12,269.00 C188.22,269.00 187.15,269.31 186.75,270.86 C186.07,273.44 187.72,276.00 190.05,276.00 C191.46,276.00 192.00,276.69 192.00,278.50 C192.00,280.91 192.23,281.00 198.50,281.00 L 205.00 281.00 L 205.00 284.50 C205.00,287.72 204.76,288.00 202.00,288.00 C199.33,288.00 199.00,288.33 199.00,291.00 C199.00,293.51 199.40,294.00 201.43,294.00 C203.35,294.00 203.94,293.41 204.18,291.25 C204.45,288.96 205.04,288.45 207.75,288.19 L 211.00 287.87 L 211.00 297.50 L 211.00 307.13 L 213.75 306.82 C216.39,306.51 216.51,306.24 216.80,300.25 ZM 180.00 291.00 C180.00,288.33 179.67,288.00 177.00,288.00 C174.33,288.00 174.00,288.33 174.00,291.00 C174.00,293.67 174.33,294.00 177.00,294.00 C179.67,294.00 180.00,293.67 180.00,291.00 ZM 192.00 291.00 C192.00,288.49 191.60,288.00 189.58,288.00 C186.99,288.00 186.05,289.43 186.78,292.25 C187.05,293.30 188.19,294.00 189.62,294.00 C191.60,294.00 192.00,293.49 192.00,291.00 ZM 185.82 284.75 C186.10,282.28 185.82,282.00 183.07,282.00 C180.52,282.00 180.00,282.40 180.00,284.33 C180.00,287.28 180.88,288.16 183.46,287.79 C184.85,287.59 185.60,286.62 185.82,284.75 ZM 247.00 253.00 C247.00,250.49 246.60,250.00 244.57,250.00 C243.02,250.00 241.91,250.72 241.50,251.99 C240.64,254.69 241.64,256.00 244.56,256.00 C246.60,256.00 247.00,255.51 247.00,253.00 ZM 168.00 247.07 C168.00,244.61 168.45,244.08 170.75,243.82 C172.89,243.57 173.57,242.91 173.81,240.82 C174.07,238.54 173.70,238.10 171.31,237.82 C169.08,237.57 168.40,236.89 167.99,234.50 C167.71,232.85 166.92,231.54 166.24,231.60 C161.89,231.95 162.00,231.71 162.00,241.00 L 162.00 250.00 L 165.00 250.00 C167.65,250.00 168.00,249.66 168.00,247.07 ZM 204.01 243.25 C204.02,242.84 204.30,241.49 204.63,240.25 C205.16,238.28 204.86,238.00 202.18,238.00 C198.67,238.00 197.60,239.17 198.50,242.01 C199.11,243.91 203.98,245.01 204.01,243.25 ZM 185.81 234.24 C186.11,231.22 185.92,231.00 183.06,231.00 C180.35,231.00 180.00,231.33 180.00,233.92 C180.00,239.07 185.32,239.37 185.81,234.24 ZM 174.00 225.00 C174.00,219.03 174.01,219.00 176.93,219.00 C179.39,219.00 179.92,219.45 180.18,221.75 C180.43,223.93 181.02,224.50 183.00,224.50 C185.34,224.50 185.52,224.14 185.80,218.75 L 186.10 213.00 L 180.05 213.00 L 174.00 213.00 L 174.00 216.00 C174.00,218.67 173.67,219.00 171.00,219.00 C168.33,219.00 168.00,218.67 168.00,216.00 C168.00,213.32 167.67,213.00 164.93,213.00 C162.18,213.00 161.90,213.28 162.18,215.75 C162.43,217.91 163.09,218.57 165.25,218.82 C167.91,219.12 168.00,219.34 168.00,225.07 C168.00,230.99 168.00,231.00 171.00,231.00 L 174.00 231.00 L 174.00 225.00 ZM 234.82 215.75 C235.10,213.28 234.82,213.00 232.07,213.00 C229.52,213.00 229.00,213.40 229.00,215.33 C229.00,216.62 229.32,217.99 229.71,218.38 C231.38,220.05 234.51,218.45 234.82,215.75 ZM 204.31 202.75 C204.71,200.25 204.53,166.53 204.09,162.75 C204.04,162.34 194.55,162.00 183.00,162.00 L 162.00 162.00 L 162.00 184.00 L 162.00 206.00 L 182.89 206.00 L 203.78 206.00 L 204.31 202.75 ZM 338.39 200.25 C338.72,197.09 338.92,187.19 338.85,178.25 L 338.71 162.00 L 317.97 162.00 C297.31,162.00 297.23,162.01 296.63,164.25 C295.85,167.18 295.85,200.82 296.63,203.75 C297.23,205.99 297.33,206.00 317.52,206.00 L 337.80 206.00 L 338.39 200.25 ZM 213.79 151.61 C228.21,144.30 249.46,140.40 265.43,142.12 C275.91,143.25 288.96,146.94 297.20,151.10 C302.78,153.92 303.38,154.00 317.96,154.00 L 332.98 154.00 L 337.37 144.61 C342.63,133.36 349.47,122.57 355.38,116.18 C357.77,113.61 360.23,110.52 360.86,109.32 C362.62,105.95 362.21,100.08 359.97,96.45 C357.48,92.43 350.05,87.53 343.96,85.91 C333.65,83.16 327.59,87.56 324.56,100.03 C323.58,104.08 322.43,108.09 322.00,108.95 C321.58,109.80 318.49,116.24 315.14,123.25 C311.79,130.26 308.66,136.00 308.18,136.00 C307.70,136.00 306.49,134.20 305.50,132.00 C304.51,129.80 303.30,128.00 302.82,128.00 C302.33,128.00 299.27,129.12 296.00,130.50 C292.73,131.88 289.59,133.00 289.02,133.00 C288.45,133.00 286.31,129.62 284.27,125.50 C282.23,121.38 279.96,118.00 279.21,118.00 C278.12,118.00 272.06,121.93 269.99,123.99 C269.71,124.27 268.30,125.54 266.86,126.81 L 264.23 129.13 L 258.05 121.56 C254.65,117.40 251.52,114.00 251.08,114.00 C250.44,114.00 242.36,123.58 239.87,127.28 C238.87,128.78 235.88,127.33 230.01,122.51 C226.99,120.03 223.95,118.00 223.27,118.00 C222.58,118.00 220.21,121.60 218.00,126.00 C215.79,130.40 213.49,134.00 212.90,134.00 C212.31,134.00 209.01,132.43 205.57,130.50 C196.15,125.24 195.79,125.39 192.58,136.08 C190.79,142.07 189.44,145.00 188.63,144.69 C184.58,143.13 171.74,139.93 171.30,140.37 C171.01,140.65 170.54,143.84 170.25,147.44 L 169.73 154.00 L 189.40 154.00 C208.16,154.00 209.28,153.89 213.79,151.61 ZM 272.50 152.75 C270.01,151.26 243.84,151.30 239.50,152.79 C237.23,153.58 241.09,153.84 255.50,153.88 C270.65,153.93 274.09,153.70 272.50,152.75 ZM 254.50 275.00 C254.84,274.45 255.32,274.00 255.56,274.00 C255.80,274.00 256.00,274.45 256.00,275.00 C256.00,275.55 255.52,276.00 254.94,276.00 C254.36,276.00 254.16,275.55 254.50,275.00 ZM 256.67 274.31 C255.92,272.17 257.62,268.00 259.24,268.00 C259.66,268.00 260.00,267.44 260.00,266.75 C260.02,263.62 270.69,255.13 272.53,256.79 C272.97,257.18 273.03,256.98 272.67,256.35 C272.31,255.72 272.72,254.94 273.59,254.60 C276.11,253.64 276.73,253.87 277.29,256.00 C277.58,257.10 277.47,257.79 277.06,257.54 C276.64,257.28 275.33,257.97 274.15,259.07 C272.97,260.18 272.00,260.83 272.00,260.53 C272.00,260.23 269.65,262.57 266.78,265.74 C263.91,268.91 261.21,271.39 260.78,271.25 C260.35,271.11 259.99,271.79 259.98,272.75 C259.97,274.17 259.80,274.23 259.08,273.09 C258.39,272.00 258.09,272.23 257.80,274.09 C257.43,276.48 257.42,276.48 256.67,274.31 ZM 286.00 231.40 C286.00,228.60 288.77,222.00 289.95,222.00 C291.53,222.00 291.72,223.28 290.74,227.30 C289.12,233.90 286.00,236.60 286.00,231.40 ZM 168.00 322.50 L 168.00 307.00 L 183.00 307.00 L 198.00 307.00 L 198.18 314.00 C198.27,317.85 198.48,322.46 198.64,324.25 C198.80,326.04 198.69,329.86 198.39,332.75 L 197.86 338.00 L 182.93 338.00 L 168.00 338.00 L 168.00 322.50 ZM 192.00 322.50 L 192.00 313.00 L 183.00 313.00 L 174.00 313.00 L 174.00 322.50 L 174.00 332.00 L 183.00 332.00 L 192.00 332.00 L 192.00 322.50 ZM 211.00 281.57 L 211.00 275.00 L 214.00 275.00 C216.67,275.00 217.00,274.67 217.00,272.00 L 217.00 269.00 L 211.00 269.00 L 205.00 269.00 L 205.00 272.06 C205.00,274.92 204.78,275.11 201.75,274.81 C199.03,274.55 198.50,274.09 198.50,272.00 C198.50,270.03 199.07,269.43 201.19,269.19 C203.27,268.95 203.95,268.27 204.19,266.19 C204.43,264.09 205.15,263.40 207.50,263.00 C210.02,262.57 210.55,261.98 210.81,259.25 C211.09,256.39 211.48,256.00 214.06,256.00 C216.66,256.00 217.00,255.65 217.00,253.00 C217.00,250.33 217.33,250.00 220.00,250.00 C222.67,250.00 223.00,249.67 223.00,247.00 C223.00,244.33 223.33,244.00 226.00,244.00 C228.67,244.00 229.00,244.33 229.00,247.00 C229.00,249.67 228.67,250.00 226.00,250.00 L 223.00 250.00 L 223.00 256.50 L 223.00 263.00 L 226.00 263.00 C228.64,263.00 229.00,262.65 229.00,260.12 C229.00,258.00 229.58,257.08 231.17,256.66 C234.16,255.88 235.00,256.63 235.00,260.06 C235.00,262.66 234.65,263.00 232.00,263.00 C229.33,263.00 229.00,263.33 229.00,266.00 C229.00,268.67 228.67,269.00 226.00,269.00 L 223.00 269.00 L 223.00 275.50 L 223.00 282.00 L 220.07 282.00 C217.61,282.00 217.08,282.45 216.82,284.75 C216.57,286.91 215.91,287.57 213.75,287.82 L 211.00 288.13 L 211.00 281.57 ZM 223.00 266.00 C223.00,263.33 222.67,263.00 220.00,263.00 C217.33,263.00 217.00,263.33 217.00,266.00 C217.00,268.67 217.33,269.00 220.00,269.00 C222.67,269.00 223.00,268.67 223.00,266.00 ZM 174.00 263.00 L 174.00 257.00 L 177.00 257.00 L 180.00 257.00 L 180.00 263.00 L 180.00 269.00 L 177.00 269.00 L 174.00 269.00 L 174.00 263.00 ZM 198.42 260.56 C197.59,257.23 198.57,256.00 202.06,256.00 C204.75,256.00 205.00,256.29 205.00,259.50 C205.00,262.72 204.76,263.00 202.02,263.00 C199.69,263.00 198.90,262.46 198.42,260.56 ZM 186.00 253.00 C186.00,250.33 186.33,250.00 189.00,250.00 C191.67,250.00 192.00,250.33 192.00,253.00 C192.00,255.67 191.67,256.00 189.00,256.00 C186.33,256.00 186.00,255.67 186.00,253.00 ZM 211.00 228.00 L 211.00 225.00 L 205.00 225.00 L 199.00 225.00 L 199.00 222.00 L 199.00 219.00 L 205.00 219.00 L 211.00 219.00 L 211.00 222.00 C211.00,224.67 211.33,225.00 214.00,225.00 C216.67,225.00 217.00,225.33 217.00,228.00 C217.00,230.67 216.67,231.00 214.00,231.00 C211.33,231.00 211.00,230.67 211.00,228.00 ZM 217.00 203.00 C217.00,200.33 217.33,200.00 220.00,200.00 C222.67,200.00 223.00,200.33 223.00,203.00 C223.00,205.67 222.67,206.00 220.00,206.00 C217.33,206.00 217.00,205.67 217.00,203.00 ZM 266.00 203.00 C266.00,200.33 266.33,200.00 269.00,200.00 C271.67,200.00 272.00,200.33 272.00,203.00 C272.00,205.67 271.67,206.00 269.00,206.00 C266.33,206.00 266.00,205.67 266.00,203.00 ZM 271.36 185.50 C270.34,182.84 271.81,181.00 274.97,181.00 C277.67,181.00 278.00,181.33 278.00,184.00 C278.00,186.67 277.67,187.00 274.97,187.00 C273.20,187.00 271.70,186.38 271.36,185.50 ZM 168.69 199.36 C168.31,198.98 168.00,191.77 168.00,183.33 L 168.00 168.00 L 183.32 168.00 L 198.64 168.00 L 198.57 183.75 L 198.50 199.50 L 183.94 199.78 C175.94,199.93 169.07,199.74 168.69,199.36 ZM 192.00 184.50 L 192.00 175.00 L 183.00 175.00 L 174.00 175.00 L 174.00 183.83 C174.00,188.69 174.30,192.97 174.67,193.33 C175.03,193.70 179.08,194.00 183.67,194.00 L 192.00 194.00 L 192.00 184.50 ZM 302.69 199.36 C302.31,198.98 302.00,191.75 302.00,183.31 L 302.00 167.95 L 317.25 168.22 L 332.50 168.50 L 332.50 184.00 L 332.50 199.50 L 317.94 199.78 C309.94,199.93 303.07,199.74 302.69,199.36 ZM 326.00 184.50 L 326.00 175.00 L 317.00 175.00 L 308.00 175.00 L 308.00 183.83 C308.00,188.69 308.30,192.97 308.67,193.33 C309.03,193.70 313.08,194.00 317.67,194.00 L 326.00 194.00 L 326.00 184.50 Z" fill="rgb(254,254,253)"/>
</g>
</svg>